<?xml version="1.0" encoding="UTF-8" standalone="no"?>
<!-- Created with Inkscape (http://www.inkscape.org/) -->

<svg
   version="1.1"
   id="svg1"
   width="1117.0909"
   height="1117.0909"
   viewBox="0 0 1117.0909 1117.0909"
   sodipodi:docname="P.svg"
   inkscape:version="1.3.2 (091e20e, 2023-11-25)"
   xmlns:inkscape="http://www.inkscape.org/namespaces/inkscape"
   xmlns:sodipodi="http://sodipodi.sourceforge.net/DTD/sodipodi-0.dtd"
   xmlns="http://www.w3.org/2000/svg"
   xmlns:svg="http://www.w3.org/2000/svg">
  <defs
     id="defs1" />
  <sodipodi:namedview
     id="namedview1"
     pagecolor="#505050"
     bordercolor="#eeeeee"
     borderopacity="1"
     inkscape:showpageshadow="0"
     inkscape:pageopacity="0"
     inkscape:pagecheckerboard="0"
     inkscape:deskcolor="#505050"
     inkscape:zoom="0.21126301"
     inkscape:cx="1372.6965"
     inkscape:cy="603.51312"
     inkscape:window-width="1440"
     inkscape:window-height="900"
     inkscape:window-x="0"
     inkscape:window-y="0"
     inkscape:window-maximized="0"
     inkscape:current-layer="g1" />
  <g
     inkscape:groupmode="layer"
     inkscape:label="Image"
     id="g1">
    <path
       style="display:inline;fill:#000000"
       d="m 356.39997,888.00004 c -5.17877,-1.38981 -8.63766,-4.32642 -11.31517,-9.60664 -1.59548,-3.14638 -1.63024,-3.28955 -1.63024,-6.71325 0,-3.05458 0.12656,-3.7685 0.99786,-5.6285 2.97221,-6.34491 7.3233,-9.52188 17.00363,-12.4153 9.66637,-2.88923 14.56607,-5.00387 22.18033,-9.57268 9.38473,-5.63117 14.04515,-9.29141 20.31528,-15.9554 5.94123,-6.31441 9.83837,-11.55967 14.12959,-19.01734 2.38405,-4.14322 16.83242,-33.22884 25.5602,-51.45454 1.1493,-2.4 4.00847,-8.29091 6.35372,-13.09091 3.93036,-8.04422 11.82303,-24.77677 11.82303,-25.06497 0,-0.0681 1.40817,-3.0473 3.12928,-6.62037 3.92211,-8.14242 9.23435,-19.38864 9.23435,-19.54949 0,-0.17294 4.24585,-9.06676 8.04143,-16.84447 1.77811,-3.64362 4.93198,-10.18907 7.00859,-14.54546 2.07661,-4.35638 5.57352,-11.60252 7.77092,-16.10252 2.1974,-4.5 4.6932,-9.65454 5.54622,-11.45454 0.85303,-1.8 3.38609,-7.11819 5.62903,-11.81819 2.24293,-4.7 6.16039,-12.96363 8.70545,-18.36363 2.54506,-5.4 6.34877,-13.32966 8.45268,-17.62146 2.10391,-4.29179 4.14878,-8.62816 4.54414,-9.63636 0.39536,-1.0082 1.2795,-3.03404 1.96474,-4.50187 0.68524,-1.46783 1.24589,-2.71821 1.24589,-2.77862 0,-0.0604 1.03762,-2.29583 2.30582,-4.96759 3.37523,-7.11075 4.37886,-9.3926 7.01468,-15.94865 0.68348,-1.7 1.39895,-3.41818 1.58995,-3.81818 0.191,-0.4 0.51534,-1.13637 0.72074,-1.63637 0.20541,-0.5 0.93742,-1.89091 1.62668,-3.09091 0.68927,-1.2 1.26459,-2.42727 1.27849,-2.72727 0.0139,-0.3 0.34527,-0.95454 0.73637,-1.45454 0.39111,-0.5 0.71474,-1.17542 0.71919,-1.50093 0.004,-0.32551 0.23727,-0.78205 0.51739,-1.01453 0.28011,-0.23247 1.1298,-1.68433 1.88818,-3.22634 0.75839,-1.54201 1.85195,-3.6113 2.43014,-4.59841 0.57819,-0.98711 1.35532,-2.62347 1.72695,-3.63636 0.89994,-2.45282 1.5918,-7.49492 1.31027,-9.54893 -0.26864,-1.9599 -1.85298,-5.19953 -4.04538,-8.27191 -2.37652,-3.33039 -3.21743,-5.67654 -3.20066,-8.92987 0.01,-1.90949 0.23179,-3.22042 0.74019,-4.37191 5.10426,-11.56076 17.01366,-15.5363 27.50152,-9.18043 7.53131,4.56414 12.36754,12.6125 13.71548,22.82507 0.65767,4.98275 0.23369,13.84544 -0.93937,19.63636 -1.44408,7.12887 -5.55721,18.83663 -9.90073,28.18182 -0.69719,1.5 -2.94637,6.32728 -4.99819,10.72728 -2.05182,4.4 -4.14386,8.9 -4.64899,10 -0.50512,1.1 -2.1415,4.61818 -3.63639,7.81818 -1.49489,3.2 -3.21337,6.88182 -3.81884,8.18182 -0.60547,1.3 -2.81644,5.88182 -4.91326,10.18182 -2.09682,4.3 -4.46943,9.20909 -5.27247,10.90909 -0.80305,1.7 -3.27776,6.8221 -5.49937,11.38245 -2.22161,4.56036 -4.03929,8.34603 -4.03929,8.41261 0,0.0666 -1.40601,3.04448 -3.12446,6.61755 -3.06105,6.36465 -9.02686,18.90103 -11.0517,23.22375 -1.14478,2.4439 -11.38576,23.8413 -18.18714,38 -2.44987,5.1 -5.31696,11.15455 -6.3713,13.45455 -1.05435,2.3 -2.84852,6.14545 -3.98704,8.54545 -1.13853,2.4 -2.56834,5.42632 -3.17735,6.72514 -0.60901,1.29883 -2.90295,6.04428 -5.09764,10.54546 -6.29301,12.90658 -13.01793,26.98793 -15.45713,32.36577 -1.32212,2.91495 -14.69431,30.33101 -18.97793,38.90909 -6.88184,13.78113 -12.96139,23.97295 -18.95264,31.77241 -9.25563,12.04905 -20.37754,22.76394 -31.25204,30.10833 -10.99458,7.42548 -19.38288,11.40942 -32.11799,15.2541 -9.56286,2.887 -15.58215,3.64573 -19.84569,2.50154 z m -53.12723,-56.4705 c 0,-0.0929 0.39123,-1.04777 0.86941,-2.12194 1.2107,-2.71972 4.80006,-10.80226 7.48825,-16.86212 6.22047,-14.0225 5.8918,-13.40138 7.2371,-13.67652 0.67459,-0.13797 1.3281,-0.38992 1.45224,-0.5599 0.12415,-0.16997 0.79845,-0.34103 1.49845,-0.38013 2.93043,-0.1637 20.70217,-6.62562 27.27273,-9.91655 1.5,-0.75129 4.44545,-2.21177 6.54545,-3.24552 2.1,-1.03374 4.47273,-2.24281 5.27273,-2.68682 3.45936,-1.91998 8.46237,-4.79438 9.63637,-5.53642 4.93968,-3.12221 5.78401,-3.73607 5.54352,-4.03037 -0.14894,-0.18228 -0.13359,-0.22147 0.0341,-0.0871 0.99596,0.798 14.78895,-9.90297 22.0118,-17.07734 2.67614,-2.65817 4.93495,-4.76379 5.01958,-4.67916 0.23688,0.23688 -1.55433,8.75093 -2.61321,12.42128 -2.21215,7.66789 -7.09528,18.15573 -11.5958,24.90513 -3.62122,5.43071 -11.92816,13.63091 -20.11973,19.86119 -7.38503,5.61685 -19.17708,12.07473 -29.00756,15.88592 -3.91564,1.51805 -9.65478,3.36713 -11.54545,3.7198 -0.75,0.1399 -1.36364,0.39978 -1.36364,0.57752 0,0.17775 -0.3818,0.32317 -0.84844,0.32317 -1.83175,0 -4.96974,0.83532 -4.96974,1.32293 0,0.27239 -0.16364,0.49525 -0.36364,0.49525 -0.2,0 -0.36363,-0.18272 -0.36363,-0.40604 0,-0.24438 -0.32577,-0.31775 -0.81819,-0.18427 -2.46466,0.66811 -16.27272,2.31258 -16.27272,1.93801 z m -5.09704,-74.84303 c 0.60902,-1.67757 4.10996,-11.06831 7.77987,-20.86831 7.65006,-20.42845 6.10004,-18.01183 12.95353,-20.19571 2.1,-0.66916 4.06364,-1.35194 4.36364,-1.51728 0.3,-0.16535 1.93636,-0.7917 3.63636,-1.39189 1.7,-0.6002 3.25455,-1.30883 3.45455,-1.57473 0.2,-0.26591 0.44545,-0.46844 0.54545,-0.45008 0.58456,0.10732 3.22554,-1.04217 3.16434,-1.37729 -0.0404,-0.22116 0.1815,-0.36124 0.49308,-0.3113 0.90229,0.14463 4.17801,-1.60478 14.70622,-7.85392 19.95151,-11.84243 40.83711,-30.52753 56.96613,-50.96416 1.49952,-1.9 4.64627,-6.13891 6.99278,-9.41979 2.34651,-3.28089 5.24962,-7.04453 6.45134,-8.36364 1.20173,-1.31912 2.52464,-3.05294 2.93982,-3.85294 0.41518,-0.8 1.14035,-1.9609 1.61149,-2.57978 0.47114,-0.61887 0.85662,-1.31729 0.85662,-1.55202 0,-0.23474 0.67869,-1.52838 1.5082,-2.87477 4.56028,-7.40181 8.41553,-14.13317 12.6997,-22.17396 2.63777,-4.95071 5.67462,-10.59847 6.74856,-12.55058 1.07395,-1.95211 1.95263,-3.7297 1.95263,-3.95018 0,-0.22049 0.79651,-1.81422 1.77001,-3.54162 2.45233,-4.35144 5.27563,-10.04647 8.58762,-17.32254 4.12803,-9.06883 5.37204,-11.45765 7.46597,-14.33655 2.32494,-3.19649 5.15238,-5.55133 8.72186,-7.26398 2.6825,-1.28708 2.80189,-1.30856 7.27273,-1.30856 4.41712,0 4.61575,0.0344 7.03553,1.21735 5.65981,2.76697 10.06148,9.54728 10.05263,15.48501 -0.009,5.90317 -1.32977,9.21986 -10.00313,25.11582 -1.6369,3 -4.88851,9.18267 -7.22581,13.73927 -2.3373,4.55659 -5.5527,10.65762 -7.14534,13.55783 -1.59264,2.90022 -2.8957,5.33868 -2.8957,5.41881 0,0.0801 -0.95508,1.91546 -2.12241,4.07852 -1.16732,2.16306 -2.82211,5.24193 -3.67731,6.84193 -3.64719,6.82353 -4.63138,8.60817 -7.21933,13.09091 -1.50102,2.6 -3.52235,6.00118 -4.49184,7.55818 -0.96949,1.55701 -2.00836,3.35701 -2.30859,4.00001 -0.87265,1.86895 -7.53869,12.64745 -8.31672,13.44751 -0.24006,0.24687 -0.83601,1.10339 -1.32433,1.90339 -0.80041,1.31131 -3.69686,5.3429 -4.83313,6.72728 -0.24623,0.3 -0.82605,1.15909 -1.28849,1.90909 -0.46244,0.75 -0.96483,1.36363 -1.11642,1.36363 -0.15158,0 -0.44565,0.36819 -0.65349,0.81819 -0.33561,0.72663 -8.54846,10.83823 -10.49808,12.92515 -0.41758,0.44699 -1.97213,2.19224 -3.45455,3.87835 -3.88386,4.4175 -14.94863,15.32095 -20.8889,20.58435 -9.9919,8.85336 -23.00412,18.479 -33.26096,24.60441 -10.7777,6.43648 -23.64511,12.46324 -33.81818,15.83958 -5.89864,1.95769 -7.1611,2.32669 -11.45632,3.34853 -7.33162,1.74419 -12.37761,2.50134 -19.55494,2.93423 l -4.28399,0.25838 z M 543.72729,724.4481 c -9.77034,-0.10789 -9.68789,-0.0831 -7.93566,-2.38143 0.48539,-0.63666 1.57132,-2.63028 2.41317,-4.43028 0.84185,-1.80001 3.20501,-6.7091 5.25145,-10.9091 2.04644,-4.2 4.24049,-8.86363 4.87566,-10.36363 0.63517,-1.5 1.76124,-3.94987 2.50239,-5.44415 l 1.34753,-2.71688 30.00001,-0.021 c 31.01144,-0.0217 31.42685,-0.0366 46.18182,-1.65449 8.36619,-0.91734 22.82757,-4.21396 35.2413,-8.03361 24.64724,-7.58384 48.56434,-20.5331 67.0548,-36.30499 1.76286,-1.50368 3.84372,-3.2445 4.62413,-3.8685 4.32196,-3.45575 13.04248,-11.4106 15.26159,-13.92162 1.1,-1.2447 2.81245,-3.16472 3.80546,-4.26672 4.11802,-4.57005 16.51658,-21.21627 20.1688,-27.07852 3.89828,-6.2572 5.80433,-9.56757 8.0214,-13.93137 1.32958,-2.61698 3.42704,-6.65611 4.66101,-8.97585 1.23398,-2.31974 2.65973,-5.34701 3.16833,-6.72727 0.50861,-1.38026 1.40257,-3.65502 1.98658,-5.05502 2.80021,-6.7127 6.96385,-17.7921 7.78932,-20.72727 2.21555,-7.87801 3.58163,-13.22053 4.62081,-18.07129 1.83077,-8.54579 1.87706,-8.78795 1.93269,-10.11053 0.0294,-0.7 0.24977,-2.41818 0.48961,-3.81818 1.36278,-7.95465 1.71961,-13.48427 1.71302,-26.54546 -0.007,-14.00437 -0.32904,-18.2596 -2.20722,-29.17075 -7.2037,-41.84929 -28.5948,-82.69127 -60.11037,-114.7686 -16.24663,-16.53622 -35.4975,-30.70036 -54.89686,-40.39125 -5.62788,-2.81139 -10.41655,-4.89918 -19.26678,-8.40004 -3.73169,-1.47613 -9.21249,-3.67745 -12.17956,-4.89182 -13.76957,-5.63565 -31.69564,-10.55045 -45.87807,-12.5784 -7.30478,-1.04452 -9.03827,-1.23666 -16,-1.77348 -8.51643,-0.65671 -8.8123,-0.65932 -69.32966,-0.61267 -27.13131,0.0209 -50.61313,-0.0582 -52.18182,-0.1759 -8.62751,-0.64709 -15.97977,-7.12141 -17.55204,-15.45612 -1.20381,-6.38152 2.95996,-14.32627 9.06352,-17.2938 5.25446,-2.55471 3.22108,-2.41738 39.63637,-2.67692 44.70455,-0.31863 84.85328,-0.16175 90.72727,0.3545 20.33776,1.78744 40.83204,5.91726 59.81818,12.054 5.91499,1.91186 17.82034,6.08343 18.63654,6.53015 0.3501,0.19161 1.74101,0.76222 3.09091,1.26801 3.95339,1.4813 14.36803,6.2494 20.404,9.3415 26.62561,13.63974 48.56877,29.14214 67.76437,47.87416 13.75764,13.42539 23.96671,25.3574 32.85841,38.40379 11.74444,17.23208 24.69053,43.90345 30.27086,62.36364 6.77614,22.41603 9.83945,40.08698 10.99002,63.39675 0.36014,7.29622 0.27647,17.57989 -0.16469,20.23962 -0.0829,0.5 -0.25865,2.62727 -0.39048,4.72727 -0.27004,4.30141 -1.68064,15.77173 -2.75451,22.39834 -2.99987,18.51158 -10.86306,43.62846 -19.51295,62.32894 -8.6392,18.67739 -11.30893,23.55987 -19.98295,36.54545 -4.8367,7.24085 -5.17774,7.70776 -11.0277,15.09764 -17.42374,22.01029 -39.36563,41.4256 -62.54546,55.34344 -5.61529,3.37159 -17.83164,10.10438 -18.33394,10.10438 -0.10223,0 -2.11438,0.94807 -4.47143,2.10683 -11.34858,5.57911 -28.77868,11.98776 -40.64918,14.94576 -16.50565,4.11303 -36.19862,6.92395 -56.32569,8.03978 -6.06023,0.33597 -36.15513,0.37582 -62.67431,0.083 z m -251.35808,-1.42662 c -0.003,-0.43819 0.15807,-0.89785 0.35807,-1.02146 0.46298,-0.28613 0.46298,0.55632 0,1.27273 -0.28658,0.44344 -0.35354,0.39645 -0.35807,-0.25127 z m 4.07285,-44.88311 c 0.21242,-0.55356 5.97334,-20.40705 6.55557,-22.59205 0.33337,-1.25107 0.65403,-1.51491 3.91183,-3.21858 3.0344,-1.58685 3.52645,-1.96904 3.39523,-2.63721 -0.13324,-0.67846 -0.0962,-0.70463 0.28074,-0.19861 0.38267,0.51364 2.79074,-0.5833 20.28803,-9.24173 10.9196,-5.4035 19.95394,-9.97519 20.0763,-10.15932 0.12236,-0.18413 0.29278,-0.2799 0.37872,-0.21282 0.1712,0.13365 21.05192,-10.48457 23.3988,-11.89871 0.8,-0.48205 1.59819,-0.87914 1.77375,-0.88243 0.50966,-0.01 -0.0731,2.87887 -1.09934,5.44856 -0.51916,1.3 -1.26726,3.18182 -1.66244,4.18182 -2.82092,7.13823 -8.87046,16.09833 -15.62282,23.13928 -15.2594,15.91156 -37.43237,26.63232 -58.99196,28.52294 -2.37187,0.20799 -2.84172,0.164 -2.68241,-0.25114 z m 272.53588,-26.02698 c -0.11187,-0.18101 0.72954,-2.20284 1.8698,-4.49296 1.14025,-2.29013 3.2938,-6.78205 4.78565,-9.98205 1.49185,-3.2 4.43464,-9.25454 6.53954,-13.45454 l 3.82709,-7.63637 6,-0.2458 c 19.24441,-0.78839 36.8883,-3.16523 49.53387,-6.67282 18.93265,-5.25147 35.30099,-13.33166 48.64795,-24.01494 8.40072,-6.72417 19.40156,-17.79389 23.50129,-23.64845 0.57429,-0.82011 2.23861,-3.15293 3.6985,-5.18404 2.43086,-3.38203 5.31013,-8.10955 9.70957,-15.94235 1.73557,-3.09001 3.98507,-8.39567 7.1386,-16.83705 1.00866,-2.7 1.96139,-5.07273 2.11717,-5.27273 1.25604,-1.61259 4.02999,-13.90994 5.12666,-22.72728 1.31459,-10.5694 0.82831,-27.54562 -1.08966,-38.04093 -1.03167,-5.64533 -3.45346,-15.12531 -5.18911,-20.31245 -1.69249,-5.05819 -6.09178,-15.23066 -8.68517,-20.08274 -5.06708,-9.48018 -13.68075,-21.21249 -21.83969,-29.74689 -11.70995,-12.24882 -30.38172,-25.92638 -44.29932,-32.45042 -19.06074,-8.93494 -35.88526,-13.96939 -54.63217,-16.34774 -4.41934,-0.56066 -13.67551,-0.61724 -109.01122,-0.66632 -57.3,-0.0295 -104.75455,-0.17671 -105.45455,-0.32713 -7.54372,-1.62111 -13.29594,-7.22464 -14.58418,-14.2072 -0.78359,-4.24725 0.278,-8.55434 3.20336,-12.99679 2.43294,-3.69464 6.01115,-6.23529 10.17188,-7.22236 1.29225,-0.30657 22.54055,-0.40457 80.66349,-0.37205 123.48932,0.0691 134.35651,0.25729 148.18182,2.56614 1.1,0.1837 3.14545,0.52254 4.54545,0.75298 18.34877,3.02011 36.41106,8.35293 48.72728,14.38654 12.25755,6.00487 26.47515,14.95076 38,23.91007 6.21265,4.82966 11.67211,9.41738 13.11977,11.02488 0.51587,0.57282 2.31587,2.32862 4,3.90177 4.01668,3.75199 8.28809,8.44561 12.78506,14.04882 3.48297,4.33978 5.22236,6.72664 9.11077,12.50219 0.95858,1.4238 4.81803,8.72509 8.57657,16.22509 6.21141,12.39461 7.03607,14.26551 9.05611,20.54545 5.27566,16.40115 7.54231,25.80934 8.84844,36.72728 0.93672,7.83003 1.32558,26.17408 0.72736,34.31192 -2.07234,28.19077 -12.5909,57.96375 -28.59126,80.92811 -3.42346,4.91349 -3.98821,5.65382 -8.9552,11.73936 -9.77763,11.97952 -20.47977,22.19824 -31.64734,30.21781 -24.7963,17.80656 -49.26226,27.54461 -81.49132,32.43555 -15.00085,2.27646 -19.80354,2.62573 -38.67558,2.81263 -10.47935,0.10378 -17.94796,0.0409 -18.06728,-0.15219 z m -202.43247,-11.3841 c 0,-0.2 0.17329,-0.36363 0.38509,-0.36363 0.21181,0 0.28397,0.16363 0.16036,0.36363 -0.12361,0.2 -0.2969,0.36364 -0.3851,0.36364 -0.0882,0 -0.16035,-0.16364 -0.16035,-0.36364 z m -1.09091,-48.93331 c -8.08501,-1.75084 -14.16097,-9.01799 -14.17751,-16.95701 -0.008,-3.93503 2.54053,-9.93134 6.53827,-15.38241 1.88205,-2.56625 7.99175,-13.10587 14.01792,-24.18182 2.26365,-4.16052 9.3365,-16.41358 9.97037,-17.27272 0.14755,-0.2 0.92889,-1.59091 1.73629,-3.09091 1.84525,-3.42812 5.17002,-9.23496 6.2461,-10.90909 0.44994,-0.70001 2.13912,-3.31819 3.75374,-5.81819 1.61462,-2.5 3.8324,-5.93636 4.9284,-7.63636 4.4919,-6.96733 6.80489,-10.45893 8.06979,-12.18182 2.92517,-3.9843 5.55667,-7.47538 8.79475,-11.66755 1.86703,-2.41716 4.04915,-5.25105 4.84915,-6.29755 0.8,-1.04649 2.35455,-2.92942 3.45455,-4.18429 5.81043,-6.62846 6.93296,-7.88599 9.27272,-10.38781 2.22882,-2.38318 6.4353,-6.54207 13.2562,-13.10622 1.09091,-1.04984 3.87273,-3.48096 6.18182,-5.40247 2.30909,-1.92152 4.28017,-3.57989 4.38017,-3.68527 1.16356,-1.22619 10.60092,-8.57992 14.58241,-11.36284 4.10388,-2.86846 17.26492,-11.0408 24.98073,-15.51175 3.80338,-2.20388 15.45582,-7.97576 20.98713,-10.39569 12.9681,-5.6735 29.6259,-9.83901 46.72246,-11.68359 8.38451,-0.90462 27.59606,-0.90253 35.81818,0.004 16.89306,1.86232 31.57314,5.41934 45.29043,10.97397 3.29026,1.33235 7.5452,3.04973 9.45541,3.81639 1.91021,0.76667 4.50943,1.9797 5.77604,2.69564 2.89455,1.63609 6.57143,3.87824 7.29223,4.44676 5.50209,4.33977 7.38243,5.98209 10.92042,9.53804 2.30399,2.31569 4.78728,4.9467 5.51842,5.8467 0.73114,0.9 1.93843,2.37273 2.68287,3.27273 18.49222,22.35634 27.83847,52.55048 24.48167,79.09091 -1.4546,11.50073 -5.37629,19.48386 -13.48513,27.45075 -5.02362,4.93568 -13.05607,10.08662 -12.14082,7.7855 0.42035,-1.05685 1.02443,-19.78117 0.7907,-24.50898 -0.73199,-14.8067 -5.19251,-30.74633 -12.5164,-44.72727 -5.24652,-10.01534 -12.05558,-19.19443 -18.52663,-24.97516 -1.74656,-1.56025 -3.92182,-3.61549 -4.8339,-4.56719 -0.91209,-0.95171 -1.82754,-1.73038 -2.03435,-1.73038 -0.20681,0 -0.85147,-0.42081 -1.43258,-0.93513 -0.58111,-0.51432 -1.62929,-1.37248 -2.32929,-1.90702 -0.7,-0.53454 -1.35661,-1.08327 -1.45914,-1.2194 -0.10252,-0.13612 -1.90252,-1.29777 -4,-2.58143 -10.11033,-6.18754 -26.92988,-12.05387 -38.35904,-13.37886 -9.21025,-1.06775 -28.46892,-0.96486 -36.72728,0.19622 -10.54211,1.48217 -18.92921,3.65447 -30.87073,7.99568 -4.36428,1.58658 -5.9634,2.26446 -11.67472,4.94901 -6.5043,3.05727 -19.68907,10.89207 -26.18182,15.55805 -5.70741,4.10159 -13.14757,9.8229 -15.56985,11.97284 -1.28725,1.14252 -4.38591,3.84547 -6.88592,6.00656 -5.61906,4.85728 -11.37977,10.78928 -17.90787,18.44035 -1.6,1.87523 -4.061,4.72739 -5.4689,6.33814 -5.07987,5.81177 -9.45691,11.55459 -15.22969,19.98185 -1.38423,2.02073 -3.34786,4.88093 -4.36364,6.356 -2.58722,3.75708 -7.16046,10.69127 -8.90344,13.49987 -3.87154,6.23853 -21.86207,38.0602 -28.5218,50.44937 -5.47735,10.18957 -8.02015,13.83012 -11.69435,16.74286 -2.55352,2.02432 -5.00147,3.22061 -8.33483,4.07313 -3.31074,0.84675 -3.90755,0.86058 -7.11971,0.16497 z m -78.19231,-19.57321 c -4.10425,-1.56924 -7.58902,-4.4071 -9.87148,-8.03894 -2.00979,-3.19795 -2.78626,-7.71224 -2.0798,-12.09156 1.2028,-7.45614 7.14506,-13.53397 14.3254,-14.65224 5.98682,-0.93239 11.21294,0.68313 15.66752,4.84322 1.48286,1.38483 2.69612,2.7251 2.69612,2.97837 0,0.25328 0.31306,0.85849 0.69569,1.34492 1.36313,1.73295 1.94769,4.79938 1.78496,9.36345 -0.13839,3.88173 -0.24635,4.41229 -1.36514,6.70881 -1.76768,3.62848 -4.9174,6.83959 -8.34989,8.51263 -2.71132,1.32154 -2.85844,1.34971 -7.49289,1.43499 -3.27928,0.0603 -5.12033,-0.0633 -6.01049,-0.40365 z m 43.08726,-80.86051 c -5.74279,-8.74719 -10.52057,-16.1102 -10.61729,-16.36224 -0.28657,-0.7468 5.0052,-9.22642 10.4564,-16.75547 1.49626,-2.0666 2.88412,-4.01969 3.08412,-4.3402 0.2,-0.32051 0.69424,-0.92056 1.09831,-1.33345 0.40407,-0.41289 1.98923,-2.32688 3.52258,-4.25333 10.41138,-13.08048 28.403,-30.79746 43.56093,-42.89599 5.26654,-4.20357 13.44381,-10.51048 13.62744,-10.51048 0.0899,0 1.19229,-0.74315 2.4498,-1.65144 4.51367,-3.26019 14.83475,-9.98492 15.3248,-9.98492 0.14323,0 1.76818,-0.95481 3.61101,-2.1218 1.84282,-1.16699 4.49604,-2.74396 5.89604,-3.50436 1.4,-0.76041 2.6,-1.52379 2.66667,-1.69639 0.0667,-0.1726 0.35711,-0.31382 0.64544,-0.31382 0.28832,0 1.68406,-0.58408 3.10163,-1.29795 9.42896,-4.74835 17.59493,-7.30388 28.49535,-8.91757 9.75315,-1.44384 18.35035,-0.80765 22.57968,1.6709 2.16344,1.26786 2.22627,2.02894 0.26526,3.21343 -0.88102,0.53216 -1.74339,0.96756 -1.91638,0.96756 -0.32638,0 -8.06231,4.3705 -8.3831,4.73613 -0.1,0.11397 -2.3091,1.49399 -4.9091,3.06671 -5.20775,3.15012 -9.38809,5.95947 -9.57575,6.43529 -0.0667,0.16903 -0.28803,0.30732 -0.49191,0.30732 -0.51115,0 -7.5687,5.14484 -7.5687,5.51746 0,0.1654 -0.20454,0.30332 -0.45454,0.30648 -0.57852,0.007 -7.1718,5.15765 -7.61383,5.94752 -0.18227,0.3257 -0.54869,0.59218 -0.81426,0.59218 -0.26558,0 -0.69962,0.26117 -0.96454,0.58038 -0.26491,0.31921 -1.65682,1.46482 -3.09311,2.54581 -1.4363,1.08098 -2.68925,2.26295 -2.78435,2.6266 -0.0951,0.36364 -0.75183,0.93589 -1.45941,1.27166 -0.70758,0.33577 -2.40791,1.6192 -3.77851,2.85206 -10.91051,9.81408 -20.41863,18.96754 -29.96878,28.85095 -5.10468,5.2828 -18.16313,19.9758 -21.79594,24.52417 -1.3,1.62763 -2.63605,3.23913 -2.969,3.58112 -0.54198,0.55669 -1.20458,1.3797 -3.57459,4.43998 -0.38722,0.5 -1.81423,2.33794 -3.17114,4.08431 -1.3569,1.74637 -3.36709,4.40746 -4.46709,5.91352 -1.1,1.50607 -2.40909,3.29696 -2.90909,3.97975 -1.91669,2.6174 -3.94759,5.66948 -7.51215,11.28939 -5.18824,8.17984 -7.67086,11.75034 -8.46611,12.17594 -0.61303,0.32808 -1.78706,-1.31131 -11.12679,-15.53721 z M 297.45455,415.6726 c -2.63714,-0.85964 -4.52445,-1.99617 -6.66816,-4.01554 -4.19811,-3.95463 -5.95048,-8.44654 -5.59826,-14.35027 0.30921,-5.18281 1.71744,-8.29485 5.38288,-11.89559 3.66983,-3.60506 6.12962,-4.66922 11.4313,-4.94543 6.13287,-0.31952 10.1905,1.19702 14.04825,5.25055 3.80507,3.99816 5.02888,7.10948 5.03604,12.80333 0.005,3.76911 -0.26193,4.90796 -1.95015,8.32818 -0.78602,1.59244 -1.93289,3.05008 -3.71938,4.72727 -2.16965,2.0369 -3.08727,2.61402 -5.73477,3.60673 -2.7884,1.04554 -3.55979,1.17956 -6.68979,1.16226 -2.36847,-0.0131 -4.19906,-0.23505 -5.53796,-0.67149 z m 453.96547,-61.94532 -0.69272,-0.81818 0.81818,0.69272 c 0.45,0.381 0.81818,0.74918 0.81818,0.81819 0,0.291 -0.29265,0.0762 -0.94364,-0.69273 z m -1.99297,-2.36363 -0.88157,-1 1,0.88157 c 0.55,0.48486 1,0.93486 1,1 0,0.28519 -0.29448,0.0531 -1.11843,-0.88157 z m -451.9778,-19.83554 c -4.71967,-1.0668 -9.12771,-4.6501 -11.32102,-9.20287 -1.15137,-2.38995 -1.20804,-2.70272 -1.21345,-6.69651 -0.005,-4.03294 0.0404,-4.28306 1.22755,-6.69451 0.78349,-1.5915 2.05352,-3.32533 3.48256,-4.75438 4.61505,-4.61505 10.41157,-6.01061 16.49282,-3.9708 4.33615,1.45447 7.53018,4.2777 9.62562,8.50816 1.04387,2.10745 1.17886,2.74849 1.29092,6.13062 0.10585,3.19451 7e-4,4.1215 -0.68176,6.01009 -1.60188,4.43297 -5.33561,8.28872 -9.68744,10.00405 -2.40582,0.94829 -6.61993,1.2529 -9.2158,0.66615 z m 85.26916,-70.01027 c -3.40564,-1.26488 -4.59735,-1.99086 -6.71974,-4.09357 -6.57371,-6.51276 -6.59236,-16.74755 -0.0424,-23.257 1.18084,-1.17353 2.57375,-2.2408 3.09535,-2.37172 0.5216,-0.13091 0.94837,-0.35361 0.94837,-0.49489 0,-0.54527 2.74423,-1.52684 5.04513,-1.80456 2.3744,-0.28659 6.07945,-0.0499 7.50033,0.47919 4.49474,1.67365 7.96206,4.78721 9.94885,8.93381 1.2527,2.61449 1.30709,2.89269 1.3153,6.72727 0.008,3.88085 -0.0321,4.08516 -1.35647,6.85889 -0.90282,1.89083 -1.96615,3.42999 -3.14023,4.54546 -2.51283,2.38737 -2.69358,2.51391 -5.41405,3.78995 -2.11095,0.99016 -2.91545,1.16147 -5.89886,1.25614 -2.68047,0.0851 -3.86394,-0.0424 -5.2816,-0.56897 z"
       id="path1" />
  </g>
</svg>
